<svg width="23" height="24" viewBox="0 0 23 24" fill="none" xmlns="http://www.w3.org/2000/svg">
<path fill-rule="evenodd" clip-rule="evenodd" d="M11.8544 0.333496C14.5881 0.333496 14.9864 0.348663 16.1384 0.403496C17.3354 0.460663 18.1532 0.65783 18.8687 0.945996C19.6197 1.23868 20.3 1.69775 20.8623 2.29116C21.4345 2.87423 21.8771 3.57975 22.1594 4.3585C22.4373 5.1005 22.6274 5.94866 22.6825 7.19C22.7365 8.43483 22.75 8.8315 22.75 12.0002V12.0935C22.75 15.177 22.7365 15.5783 22.6825 16.8103C22.6274 18.0517 22.4373 18.8998 22.1594 19.6418C21.8771 20.4206 21.4345 21.1261 20.8623 21.7092C20.3 22.3026 19.6197 22.7616 18.8687 23.0543C18.1532 23.3425 17.3354 23.5397 16.1384 23.5968C14.938 23.6528 14.5555 23.6668 11.5 23.6668H11.41C8.43663 23.6668 8.04962 23.6528 6.86162 23.5968C5.66462 23.5397 4.84675 23.3425 4.13125 23.0543C3.38031 22.7616 2.7 22.3026 2.13775 21.7092C1.56553 21.1261 1.12286 20.4206 0.840625 19.6418C0.56275 18.8998 0.372625 18.0517 0.3175 16.8103C0.264625 15.6157 0.25 15.2015 0.25 12.3677V11.6327C0.25 8.79766 0.264625 8.38466 0.3175 7.19C0.372625 5.94866 0.56275 5.1005 0.840625 4.3585C1.12286 3.57975 1.56553 2.87423 2.13775 2.29116C2.7 1.69775 3.38031 1.23868 4.13125 0.945996C4.84675 0.65783 5.66462 0.460663 6.86162 0.403496C8.01362 0.348663 8.413 0.333496 11.1456 0.333496H11.8544ZM11.7633 2.43583H11.2367C8.47375 2.43583 8.10475 2.44866 6.95388 2.5035C5.857 2.556 5.26188 2.745 4.86475 2.90483C4.33938 3.11716 3.96475 3.36916 3.571 3.7775C3.17725 4.18583 2.93425 4.57433 2.7295 5.11916C2.57538 5.531 2.392 6.14816 2.3425 7.28566C2.28962 8.47916 2.27725 8.86183 2.27725 11.7272V12.2732C2.27725 15.1385 2.28962 15.5212 2.3425 16.7147C2.39312 17.8522 2.57538 18.4693 2.7295 18.8812C2.93425 19.4248 3.17838 19.8145 3.571 20.2228C3.96475 20.6312 4.33938 20.8832 4.86475 21.0955C5.26188 21.2553 5.857 21.4455 6.95388 21.4968C8.13963 21.5528 8.49512 21.5645 11.5 21.5645H11.59C14.5116 21.5645 14.8716 21.5528 16.045 21.4968C17.143 21.4443 17.7381 21.2553 18.1353 21.0955C18.6595 20.8832 19.0352 20.6312 19.429 20.2228C19.8228 19.8145 20.0658 19.426 20.2705 18.8812C20.4246 18.4693 20.608 17.8522 20.6575 16.7147C20.7115 15.4838 20.7227 15.1163 20.7227 12.0002V11.9068C20.7227 8.877 20.7115 8.50366 20.6575 7.28683C20.6069 6.14816 20.4246 5.531 20.2705 5.11916C20.0902 4.61233 19.8027 4.15386 19.429 3.7775C19.0661 3.39 18.624 3.0918 18.1353 2.90483C17.7381 2.745 17.143 2.55483 16.0461 2.5035C14.8953 2.44866 14.5262 2.43583 11.7633 2.43583ZM11.5 6.00933C12.2586 6.00933 13.0098 6.16429 13.7107 6.46535C14.4116 6.76642 15.0484 7.2077 15.5849 7.764C16.1213 8.32031 16.5468 8.98073 16.8371 9.70757C17.1275 10.4344 17.2769 11.2134 17.2769 12.0002C17.2769 12.7869 17.1275 13.5659 16.8371 14.2928C16.5468 15.0196 16.1213 15.68 15.5849 16.2363C15.0484 16.7926 14.4116 17.2339 13.7107 17.535C13.0098 17.836 12.2586 17.991 11.5 17.991C9.96788 17.991 8.49851 17.3598 7.41513 16.2363C6.33176 15.1128 5.72312 13.589 5.72312 12.0002C5.72312 10.4113 6.33176 8.8875 7.41513 7.764C8.49851 6.64051 9.96788 6.00933 11.5 6.00933ZM11.5 8.11166C10.5055 8.11166 9.55181 8.52134 8.84861 9.25058C8.14542 9.97981 7.75037 10.9689 7.75037 12.0002C7.75037 13.0315 8.14542 14.0205 8.84861 14.7497C9.55181 15.479 10.5055 15.8887 11.5 15.8887C12.4945 15.8887 13.4482 15.479 14.1514 14.7497C14.8546 14.0205 15.2496 13.0315 15.2496 12.0002C15.2496 10.9689 14.8546 9.97981 14.1514 9.25058C13.4482 8.52134 12.4945 8.11166 11.5 8.11166ZM17.5052 4.3725C17.8633 4.3725 18.2067 4.52 18.4598 4.78255C18.713 5.0451 18.8552 5.40119 18.8552 5.7725C18.8552 6.1438 18.713 6.4999 18.4598 6.76245C18.2067 7.025 17.8633 7.1725 17.5052 7.1725C17.1472 7.1725 16.8038 7.025 16.5507 6.76245C16.2975 6.4999 16.1553 6.1438 16.1553 5.7725C16.1553 5.40119 16.2975 5.0451 16.5507 4.78255C16.8038 4.52 17.1472 4.3725 17.5052 4.3725Z" fill="black"/>
</svg>
