<svg width="20" height="18" viewBox="0 0 20 18" fill="none" xmlns="http://www.w3.org/2000/svg">
<path d="M6.29 17.2514C13.837 17.2514 17.965 10.9984 17.965 5.57645C17.965 5.39845 17.965 5.22144 17.953 5.04644C18.7562 4.46497 19.4493 3.74506 20 2.92045C19.2511 3.25245 18.4566 3.47021 17.643 3.56645C18.4996 3.0535 19.1408 2.24679 19.447 1.29645C18.6417 1.77433 17.7607 2.11117 16.842 2.29244C16.2234 1.63421 15.405 1.19828 14.5136 1.05215C13.6222 0.90602 12.7075 1.05784 11.9111 1.48411C11.1147 1.91038 10.4811 2.58732 10.1083 3.41011C9.7355 4.23289 9.64437 5.15563 9.849 6.03544C8.21759 5.95369 6.6216 5.52977 5.16465 4.79121C3.70769 4.05266 2.42233 3.01597 1.392 1.74845C0.867318 2.65165 0.706589 3.72087 0.942536 4.73841C1.17848 5.75595 1.79337 6.64532 2.662 7.22545C2.00926 7.20655 1.37063 7.03094 0.8 6.71345V6.76545C0.800389 7.71274 1.1284 8.63075 1.7284 9.3638C2.3284 10.0969 3.16347 10.5998 4.092 10.7874C3.48781 10.9522 2.85389 10.9761 2.239 10.8574C2.50116 11.6729 3.01168 12.386 3.69913 12.8971C4.38658 13.4081 5.21657 13.6914 6.073 13.7074C5.22212 14.376 4.24779 14.8703 3.20573 15.162C2.16367 15.4537 1.07432 15.5371 0 15.4074C1.8766 16.6118 4.06019 17.2505 6.29 17.2474" fill="black"/>
</svg>
